<?xml version="1.0" encoding="UTF-8" standalone="no"?>
<!-- Created with Inkscape (http://www.inkscape.org/) -->

<svg
   xmlns:dc="http://purl.org/dc/elements/1.1/"
   xmlns:cc="http://creativecommons.org/ns#"
   xmlns:rdf="http://www.w3.org/1999/02/22-rdf-syntax-ns#"
   xmlns:svg="http://www.w3.org/2000/svg"
   xmlns="http://www.w3.org/2000/svg"
   xmlns:sodipodi="http://sodipodi.sourceforge.net/DTD/sodipodi-0.dtd"
   xmlns:inkscape="http://www.inkscape.org/namespaces/inkscape"
   width="210mm"
   height="297mm"
   id="svg3220"
   version="1.1"
   inkscape:version="0.48.5 r10040"
   sodipodi:docname="Logo.svg">
  <defs
     id="defs3222">
    <clipPath
       id="clipPath3343"
       clipPathUnits="userSpaceOnUse">
      <path
         id="path3345"
         d="m 147.02,0 1375.2,0 0,1020 -1375.2,0 0,-1020 z" />
    </clipPath>
  </defs>
  <sodipodi:namedview
     id="base"
     pagecolor="#ffffff"
     bordercolor="#fafafa"
     borderopacity="1.0"
     inkscape:pageopacity="0"
     inkscape:pageshadow="2"
     inkscape:zoom="0.49497475"
     inkscape:cx="898.6516"
     inkscape:cy="555.03561"
     inkscape:document-units="px"
     inkscape:current-layer="g4174"
     showgrid="false"
     inkscape:window-width="1680"
     inkscape:window-height="987"
     inkscape:window-x="-8"
     inkscape:window-y="-8"
     inkscape:window-maximized="1" />
  <metadata
     id="metadata3225">
    <rdf:RDF>
      <cc:Work
         rdf:about="">
        <dc:format>image/svg+xml</dc:format>
        <dc:type
           rdf:resource="http://purl.org/dc/dcmitype/StillImage" />
        <dc:title></dc:title>
      </cc:Work>
    </rdf:RDF>
  </metadata>
  <g
     inkscape:label="Ebene 1"
     inkscape:groupmode="layer"
     id="layer1">
    <g
       id="g4174"
       transform="matrix(0.99669707,0,0,0.99669707,0.06956312,0.14311816)"
       inkscape:export-xdpi="150"
       inkscape:export-ydpi="150">
      <g
         id="g4464"
         inkscape:export-filename="C:\Users\Antonius\Documents\Work\TabitDB\TabitDB\10-Vertrieb\01-PR&amp;Marketing\CI\Logo\Tabit - transparent.png"
         inkscape:export-xdpi="150"
         inkscape:export-ydpi="150">
        <path
           sodipodi:nodetypes="ccccssccssccc"
           inkscape:connector-curvature="0"
           id="path3849"
           d="m 16.318292,818.88472 172.743188,0 -0.007,25.09162 -79.69418,0.0127 -0.008,78.73278 c -9.6e-4,9.46608 10.69724,22.96362 23.97185,22.96304 l 67.51272,0 -0.003,26.00978 -69.7993,-9.2e-4 c -19.4545,-2.2e-4 -47.675962,-20.07197 -47.678516,-48.59527 l -0.0069,-79.10639 -67.026781,0 z"
           style="opacity:1;fill:#fafafa;stroke:#fafafa;stroke-width:1.15947055999999990px;stroke-linecap:butt;stroke-linejoin:miter;stroke-opacity:1;fill-opacity:1" />
        <path
           sodipodi:nodetypes="ccccccccssccssccccc"
           inkscape:connector-curvature="0"
           id="path3849-1"
           d="m 524.42731,818.87813 75.17135,3.5e-4 -0.006,-46.19316 26.01406,0.0208 10e-4,46.16739 80.58867,0.0116 -0.007,25.09162 -79.69416,0.0127 -0.008,78.73277 c -9.6e-4,9.46597 10.69722,22.96351 23.97184,22.96294 l 67.51274,0 -0.003,26.00977 -69.79931,-8e-4 c -19.45396,-2.4e-4 -47.6754,-20.07199 -47.67796,-48.5954 l -0.007,-79.10639 -50.05134,-0.0116 0.005,127.70745 -26.02104,0 z"
           style="opacity:1;fill:#fafafa;stroke:#fafafa;stroke-width:1.15947055999999990px;stroke-linecap:butt;stroke-linejoin:miter;stroke-opacity:1;fill-opacity:1" />
        <path
           transform="matrix(1.2230032,0,0,1.2230032,-80.619358,645.31046)"
           d="m 519,103.29968 a 13.1875,13.1875 0 1 1 -26.375,0 13.1875,13.1875 0 1 1 26.375,0 z"
           sodipodi:ry="13.1875"
           sodipodi:rx="13.1875"
           sodipodi:cy="103.29968"
           sodipodi:cx="505.8125"
           id="path3869"
           style="opacity:1;fill:#fafafa;fill-opacity:1;fill-rule:nonzero;stroke:#fafafa;stroke-width:1;stroke-linecap:round;stroke-linejoin:miter;stroke-miterlimit:4;stroke-opacity:1;stroke-dasharray:none"
           sodipodi:type="arc" />
        <path
           transform="matrix(0.98472381,0,0,0.98472381,225.81917,689.96177)"
           d="m 519,103.29968 a 13.1875,13.1875 0 1 1 -26.375,0 13.1875,13.1875 0 1 1 26.375,0 z"
           sodipodi:ry="13.1875"
           sodipodi:rx="13.1875"
           sodipodi:cy="103.29968"
           sodipodi:cx="505.8125"
           id="path3869-4"
           style="opacity:1;fill:none;stroke:#fafafa;stroke-width:2.58971739000000010;stroke-linecap:round;stroke-linejoin:miter;stroke-miterlimit:4;stroke-opacity:1;stroke-dasharray:none"
           sodipodi:type="arc" />
        <text
           sodipodi:linespacing="125%"
           id="text4399"
           y="800.53839"
           x="723.99567"
           style="font-size:28.12717818999999900px;font-style:normal;font-variant:normal;font-weight:bold;font-stretch:normal;text-align:center;line-height:125%;letter-spacing:0px;word-spacing:0px;text-anchor:middle;opacity:1;fill:#fafafa;fill-opacity:1;stroke:none;font-family:Resamitz;-inkscape-font-specification:Sans Bold"
           xml:space="preserve"><tspan
             style="font-family:Calibri;-inkscape-font-specification:Calibri;fill:#fafafa;fill-opacity:1"
             y="800.53839"
             x="723.99567"
             id="tspan4401"
             sodipodi:role="line">R</tspan></text>
        <path
           id="path4403"
           transform="matrix(1.0033139,0,0,1.0033139,-0.06979364,-0.14359244)"
           d="M 210.40625 816.3125 L 210.40625 841.34375 L 288.625 841.34375 C 299.68853 841.34364 312.4848 852.95809 312.46875 864.25 L 312.4375 873.21875 L 242.9375 873.21875 C 184.51378 873.22267 182.94904 968.625 242.9375 968.625 L 290.84375 968.625 C 313.96889 968.62419 338.34176 947.30976 338.34375 920.21875 L 338.34375 862.90625 C 338.34526 839.64436 314.81093 816.34475 293.53125 816.34375 L 210.40625 816.3125 z M 245.34375 898.21875 L 312.4375 898.21875 L 312.4375 920.71875 C 312.43949 930.68491 298.65141 943.62638 290.40625 943.625 L 245.34375 943.59375 C 217.0129 943.59375 217.9719 898.21967 245.34375 898.21875 z "
           style="fill:#fafafa;fill-opacity:1;stroke:#fafafa;stroke-width:1.15564096px;stroke-linecap:butt;stroke-linejoin:miter;stroke-opacity:1" />
        <path
           id="path4407"
           transform="matrix(1.0033139,0,0,1.0033139,-0.06979364,-0.14359244)"
           d="M 357.5625 770.28125 L 357.5625 919.3125 C 357.56157 948.43774 384.32233 968.62547 405.0625 968.625 L 455.15625 968.625 C 477.42227 968.62442 501.75299 946.12679 501.75 923.8125 L 501.75 862.03125 C 501.74691 838.45561 478.31653 816.3125 455.125 816.3125 L 404.9375 816.3125 C 394.77418 816.3125 390.03749 819.93935 383.5 822.875 L 383.5 770.28125 L 357.5625 770.28125 z M 407.28125 842.25 L 453.8125 842.25 C 465.29885 842.24919 476.72191 854.67986 476.71875 866.09375 L 476.71875 917.96875 C 476.71576 929.16436 465.85978 942.68485 453.84375 942.6875 L 407.3125 942.71875 C 396.33072 942.71875 383.49717 932.07908 383.5 918 L 383.5 866.0625 C 383.50199 853.22623 396.57822 842.25081 407.28125 842.25 z "
           style="fill:#fafafa;stroke:#fafafa;stroke-width:1.15564095999999990px;stroke-linecap:butt;stroke-linejoin:miter;stroke-opacity:1;fill-opacity:1" />
      </g>
      <g
         id="g3759"
         inkscape:export-filename="C:\Users\Antonius\Documents\Work\TabitDB\TabitDB\10-Vertrieb\01-PR&amp;Marketing\CI\Logo\Logo - transparent.png"
         inkscape:export-xdpi="150"
         inkscape:export-ydpi="150">
        <path
           style="fill:#d7e9f2;fill-opacity:1;stroke:#d7e9f2;stroke-width:1px;stroke-linecap:butt;stroke-linejoin:miter;stroke-opacity:1"
           d="M 26.697585,148.00856 367.12816,43.830374 703.94713,141.50003 614.40465,183.43389 370.81678,96.301359 121.35912,188.65161 z"
           id="path3192"
           inkscape:connector-curvature="0"
           sodipodi:nodetypes="ccccccc" />
        <path
           style="fill:#b2cfdd;fill-opacity:1;stroke:#b2cfdd;stroke-width:1px;stroke-linecap:butt;stroke-linejoin:miter;stroke-opacity:1"
           d="m 21.560906,159.8407 92.645094,40.27734 23.62808,287.45477 227.25528,92.52905 0.3192,117.78516 L 79.094637,549.35715 z"
           id="path3194"
           inkscape:connector-curvature="0"
           sodipodi:nodetypes="ccccccc" />
        <path
           style="fill:#afd3e5;fill-opacity:1;stroke:#afd3e5;stroke-width:1px;stroke-linecap:butt;stroke-linejoin:miter;stroke-opacity:1"
           d="m 139.68981,194.9071 95.48661,-34.70201 c 43.84536,13.98202 76.10322,36.85366 135.50112,36.49488 58.50462,-0.35338 94.5977,-28.38625 131.12142,-41.60778 l 93.7904,34.59281 -112.5945,52.80377 c -28.4371,13.33624 -76.09662,39.88048 -114.10248,40.00215 -33.84144,0.10834 -84.86185,-23.50818 -122.00719,-39.99771 z"
           id="path3196"
           inkscape:connector-curvature="0"
           sodipodi:nodetypes="ccsccsssc" />
        <path
           style="fill:#65a1bb;fill-opacity:1;stroke:#65a1bb;stroke-width:1px;stroke-linecap:butt;stroke-linejoin:miter;stroke-opacity:1"
           d="m 129.63981,206.84966 115.07853,53.60058 c 91.02803,42.39849 117.88874,71.19265 118.95641,196.78014 l 0.88909,104.58039 -93.13643,-36.79687 c -0.99313,-19.26973 -1.86893,-31.2976 -2.54948,-45.03859 -3.29466,-66.52288 -37.80192,-112.20723 -81.51602,-132.89555 -2.99432,-1.4171 -34.32536,-18.81027 -50.21898,-26.31105 z"
           id="path3198"
           inkscape:connector-curvature="0"
           sodipodi:nodetypes="cssccsscc" />
        <path
           style="fill:#93a6af;fill-opacity:1;stroke:#93a6af;stroke-width:1px;stroke-linecap:butt;stroke-linejoin:miter;stroke-opacity:1"
           d="m 619.84181,196.22685 89.41547,-43.7535 -73.67943,392.01316 -256.84405,153.64538 0.004,-117.46927 204.68582,-94.37386 z"
           id="path3218"
           inkscape:connector-curvature="0"
           sodipodi:nodetypes="ccccccc" />
        <path
           style="fill:#344b57;fill-opacity:1;stroke:#344b57;stroke-width:1px;stroke-linecap:butt;stroke-linejoin:miter;stroke-opacity:1"
           d="m 606.57891,203.25016 -114.25768,54.31818 c -89.49069,42.54394 -113.39707,78.05635 -113.49601,200.77738 l -0.0844,104.68976 88.89319,-41.19847 c 2.87709,-26.86101 2.7149,-51.45862 8.86934,-73.01363 14.78239,-51.77319 35.75557,-80.99172 75.15866,-103.75772 11.27816,-6.51621 23.89739,-15.3457 39.92941,-25.38082 z"
           id="path3198-6"
           inkscape:connector-curvature="0"
           sodipodi:nodetypes="cssccsscc" />
      </g>
    </g>
  </g>
</svg>
